<mxfile host="app.diagrams.net" modified="2021-05-29T06:24:21.663Z" agent="5.0 (Windows NT 10.0; Win64; x64) AppleWebKit/537.36 (KHTML, like Gecko) Chrome/76.0.3795.5 Safari/537.36" etag="H3NIBZgS6drcpte0_C5b" version="13.8.6" type="github">
  <diagram id="6fDDoN7nnH-20PCQ1AlL" name="Page-1">
    <mxGraphModel dx="1024" dy="531" grid="1" gridSize="10" guides="1" tooltips="1" connect="1" arrows="1" fold="1" page="1" pageScale="1" pageWidth="827" pageHeight="1169" math="0" shadow="0">
      <root>
        <mxCell id="0" />
        <mxCell id="1" parent="0" />
        <mxCell id="Mu2a-EoMiUU_8lVDPH3V-3" value="" style="edgeStyle=orthogonalEdgeStyle;rounded=0;orthogonalLoop=1;jettySize=auto;html=1;" edge="1" parent="1" source="Mu2a-EoMiUU_8lVDPH3V-1" target="Mu2a-EoMiUU_8lVDPH3V-2">
          <mxGeometry relative="1" as="geometry" />
        </mxCell>
        <mxCell id="Mu2a-EoMiUU_8lVDPH3V-1" value="&lt;span style=&quot;color: rgb(50 , 50 , 50) ; font-size: 13px ; background-color: rgba(255 , 255 , 255 , 0.01)&quot;&gt;QuorumPeerMain.main()&lt;/span&gt;" style="rounded=0;whiteSpace=wrap;html=1;" vertex="1" parent="1">
          <mxGeometry x="10" y="230" width="190" height="70" as="geometry" />
        </mxCell>
        <mxCell id="Mu2a-EoMiUU_8lVDPH3V-5" value="" style="edgeStyle=orthogonalEdgeStyle;rounded=0;orthogonalLoop=1;jettySize=auto;html=1;" edge="1" parent="1" source="Mu2a-EoMiUU_8lVDPH3V-2" target="Mu2a-EoMiUU_8lVDPH3V-4">
          <mxGeometry relative="1" as="geometry">
            <Array as="points">
              <mxPoint x="490" y="265" />
              <mxPoint x="490" y="145" />
            </Array>
          </mxGeometry>
        </mxCell>
        <mxCell id="Mu2a-EoMiUU_8lVDPH3V-9" style="edgeStyle=orthogonalEdgeStyle;rounded=0;orthogonalLoop=1;jettySize=auto;html=1;exitX=1;exitY=0.5;exitDx=0;exitDy=0;" edge="1" parent="1" source="Mu2a-EoMiUU_8lVDPH3V-2" target="Mu2a-EoMiUU_8lVDPH3V-8">
          <mxGeometry relative="1" as="geometry" />
        </mxCell>
        <mxCell id="Mu2a-EoMiUU_8lVDPH3V-2" value="&lt;span style=&quot;color: rgb(50 , 50 , 50) ; font-size: 13px ; background-color: rgba(255 , 255 , 255 , 0.01)&quot;&gt;main.initializeAndRun(args);&lt;/span&gt;" style="rounded=0;whiteSpace=wrap;html=1;" vertex="1" parent="1">
          <mxGeometry x="270" y="230" width="190" height="70" as="geometry" />
        </mxCell>
        <mxCell id="Mu2a-EoMiUU_8lVDPH3V-4" value="&lt;span style=&quot;color: rgb(50 , 50 , 50) ; font-size: 13px ; background-color: rgba(255 , 255 , 255 , 0.01)&quot;&gt;purgeMgr.start();&lt;/span&gt;" style="rounded=0;whiteSpace=wrap;html=1;" vertex="1" parent="1">
          <mxGeometry x="540" y="130" width="180" height="50" as="geometry" />
        </mxCell>
        <mxCell id="Mu2a-EoMiUU_8lVDPH3V-8" value="&lt;span style=&quot;color: rgb(50 , 50 , 50) ; font-size: 13px ; background-color: rgba(255 , 255 , 255 , 0.01)&quot;&gt;runFromConfig(config);&lt;/span&gt;" style="rounded=0;whiteSpace=wrap;html=1;" vertex="1" parent="1">
          <mxGeometry x="530" y="290" width="200" height="40" as="geometry" />
        </mxCell>
      </root>
    </mxGraphModel>
  </diagram>
</mxfile>
